# Blender 4.3.2
# www.blender.org
mtllib walls.mtl
o Walls
v -8.255061 6.990899 11.883940
v -8.255061 0.000002 11.883940
v -8.255061 6.990899 -6.876126
v -8.255061 0.000002 -6.876126
v -4.884270 6.990899 -10.239970
v -4.884270 0.000002 -10.239970
v 8.260237 6.991098 11.843533
v 8.260237 0.000201 11.843533
v 8.260237 6.991098 -6.909501
v 8.260237 0.000201 -6.909501
v 4.965523 6.991096 -10.188678
v 4.965523 0.000199 -10.188678
v -8.255061 7.201941 7.196602
v -8.255061 3.998660 7.196602
v 8.260237 7.202140 7.163229
v 8.260237 3.998860 7.163229
v -8.255061 3.998660 12.372913
v 8.260237 3.998860 12.339540
v -8.255061 2.568156 9.694622
v -8.255061 0.000002 9.694622
v -5.129743 2.568156 9.694621
v -5.129743 0.000002 9.694621
v -5.129743 2.711412 11.806029
v -5.129743 0.000201 11.806029
vn 1.0000 -0.0000 -0.0000
vn 0.7064 -0.0000 0.7078
vn -0.0024 -0.0000 -1.0000
vn -1.0000 -0.0000 -0.0000
vn -0.7054 -0.0000 0.7088
vn -0.0052 -0.0000 1.0000
vn -0.0020 -0.0000 -1.0000
vn -0.0000 -1.0000 -0.0000
vn -0.0000 -0.0000 -1.0000
vt 0.394234 0.471010
vt 0.394234 0.250305
vt 0.986497 0.250305
vt 0.986497 0.471010
vt 0.409612 0.241696
vt 0.409612 0.020991
vt 0.516029 0.020991
vt 0.516029 0.241696
vt 0.442125 0.513294
vt 0.442125 0.734000
vt 0.963520 0.734006
vt 0.963520 0.513301
vt 0.397416 0.753334
vt 0.397416 0.974039
vt 0.989457 0.974039
vt 0.989457 0.753334
vt 0.979106 0.015479
vt 0.979106 0.236184
vt 0.875090 0.236184
vt 0.875090 0.015479
vt 0.849297 0.017060
vt 0.849297 0.237765
vt 0.538335 0.237759
vt 0.538335 0.017053
vt 0.017687 0.908845
vt 0.386691 0.908840
vt 0.386691 0.980412
vt 0.017687 0.980416
vt 0.386691 0.793185
vt 0.017687 0.792439
vt 0.017687 0.908095
vt 0.169571 0.133218
vt 0.268238 0.133217
vt 0.268238 0.052140
vt 0.169571 0.052140
vt 0.092614 0.047922
vt 0.159272 0.047916
vt 0.159272 0.128993
vt 0.092614 0.133516
s 0
f 1/1/1 2/2/1 4/3/1 3/4/1
f 3/5/2 4/6/2 6/7/2 5/8/2
f 2/9/3 1/10/3 7/11/3 8/12/3
f 8/13/4 7/14/4 9/15/4 10/16/4
f 10/17/5 9/18/5 11/19/5 12/20/5
f 12/21/6 11/22/6 5/23/6 6/24/6
f 16/25/7 14/26/7 13/27/7 15/28/7
f 16/26/8 18/29/8 17/30/8 14/31/8
f 19/32/9 21/33/9 22/34/9 20/35/9
f 24/36/1 22/37/1 21/38/1 23/39/1
